<?xml version="1.0" encoding="utf-8"?>
<!-- Generator: Adobe Illustrator 18.0.0, SVG Export Plug-In . SVG Version: 6.00 Build 0)  -->
<!DOCTYPE svg PUBLIC "-//W3C//DTD SVG 1.1//EN" "http://www.w3.org/Graphics/SVG/1.1/DTD/svg11.dtd">
<svg version="1.1" id="Layer_1" xmlns="http://www.w3.org/2000/svg" xmlns:xlink="http://www.w3.org/1999/xlink" x="0px" y="0px"
	 viewBox="-17.2 27.1 1002.8 242.6" enable-background="new -17.2 27.1 1002.8 242.6" xml:space="preserve">
<g>
	<path fill="none" stroke="#49F2C7" stroke-width="45" stroke-miterlimit="10" d="M998.7,198.7c0,0-503.6-235.2-351.7-83.3
		c183.6,183.6-492-19-330-57.9c216.9-52-127.9,169.7-93,178.9c275,72-154.8-242.7-64-133.8c47.8,57.3-183.3,44-183.3,44"/>
</g>
<g>
	<path fill="none" stroke="#49F2F0" stroke-width="9" stroke-miterlimit="10" d="M255.7,181.8C234,194,213.9,221.1,223,223.1
		C500.7,284.7,68.2-19.7,159,89.3c47.8,57.3-183.3,44-183.3,44"/>
	<path fill="none" stroke="#49F2F0" stroke-width="9" stroke-miterlimit="10" d="M317.7,129.7c-8.4,7.7-16.5,15-22.7,20.3"/>
	<path fill="none" stroke="#49F2F0" stroke-width="9" stroke-miterlimit="10" d="M997.7,185.4c0,0-503.6-235.2-351.7-83.3
		c183.6,183.6-492-19-330-57.9c97.4-23.3,73.7,17.5,37.7,51.5"/>
</g>
</svg>
