<?xml version="1.0" encoding="utf-8"?>
<!-- Generator: Adobe Illustrator 18.0.0, SVG Export Plug-In . SVG Version: 6.00 Build 0)  -->
<!DOCTYPE svg PUBLIC "-//W3C//DTD SVG 1.1//EN" "http://www.w3.org/Graphics/SVG/1.1/DTD/svg11.dtd">
<svg version="1.1" id="Layer_1" xmlns="http://www.w3.org/2000/svg" xmlns:xlink="http://www.w3.org/1999/xlink" x="0px" y="0px"
	 viewBox="0 0 400 400" enable-background="new 0 0 400 400" xml:space="preserve">
<path fill="#60F2A2" d="M183.2,327.4h-45V166.2H126c-25.5,0-47.9-15.4-57-39.2c-9.1-23.8-2.7-50.1,16.2-67.1l1.4-1.3
	c17.3-15.4,41.1-19.2,62.3-9.7c21.2,9.5,34.3,29.7,34.3,52.9v19.4h152.8v45H183.2V327.4z M116.7,92.1l-1.4,1.2
	c-7.4,6.6-5.4,14.5-4.2,17.6c1.2,3.1,5,10.3,14.9,10.3h12.2v-19.4c0-7.6-5.4-10.8-7.7-11.8C128.2,89,122.3,87.2,116.7,92.1z"/>
<path fill="#60F2A2" d="M278,332.3c-8.4,0-16.8-2-24.6-6c-18.1-9.3-29.3-27.6-29.3-47.9v-22.8H79.5v-45h144.6V70.8h45v139.7h6.4
	c27.4,0,50.3,16.3,58.4,41.4c8.2,25.3-1.1,53-23,68.8l-1.6,1.2C300,328.8,289,332.3,278,332.3z M269.1,255.6v22.8c0,4.7,3,7,4.8,7.9
	c1.8,0.9,5.3,2,9-0.6l1.6-1.2c7.6-5.4,8.4-13.2,6.6-18.7c-1.2-3.8-4.9-10.2-15.6-10.2H269.1z"/>
<path fill="#60F6C9" d="M277.5,324.7c-6.9,0-13.8-1.3-20.2-3.9c-12.1-5-32.4-19.3-32.4-58.5h7c0,26.1,10,44.6,28,52.1
	c13.4,5.5,33.9,4.6,45-6.5l0.4-0.3l1.4-1.1c15-10.8,21.9-33.9,15.8-52.8c-3.6-11-14.6-29.6-48.2-29.6H80.7v-7h193.7
	c27.8,0,47.8,12.5,54.9,34.4c7.1,21.9-0.8,47.9-18.4,60.6l-1.2,0.9C302,320.6,289.9,324.7,277.5,324.7z"/>
<rect x="224.5" y="170.4" fill="#60F6C9" width="7" height="34.2"/>
<rect x="224.5" y="71.3" fill="#60F6C9" width="7" height="44.4"/>
<path fill="#60F6C9" d="M175.9,208.2h-7V106.2c0-33.7-18.6-44.7-29.6-48.2c-18.9-6-42,0.9-52.6,15.8l-1.5,1.9
	c-8.8,8.8-13.6,28.4-6.3,45.9c7.6,18.3,26,28.3,51.9,28.3v7c-39,0-53.3-20.5-58.4-32.7C64.8,105.9,68.1,83,80,70.8l0.9-1.2
	c12.5-17.5,38.5-25.4,60.4-18.3c21.9,7,34.5,27,34.5,54.9V208.2z"/>
<rect x="173.9" y="260.5" fill="#60F6C9" width="7" height="66.9"/>
<rect x="188.5" y="150.1" fill="#60F6C9" width="147.5" height="7"/>
</svg>
