<?xml version="1.0" encoding="utf-8"?>
<!-- Generator: Adobe Illustrator 18.0.0, SVG Export Plug-In . SVG Version: 6.00 Build 0)  -->
<!DOCTYPE svg PUBLIC "-//W3C//DTD SVG 1.1//EN" "http://www.w3.org/Graphics/SVG/1.1/DTD/svg11.dtd">
<svg version="1.1" id="Layer_1" xmlns="http://www.w3.org/2000/svg" xmlns:xlink="http://www.w3.org/1999/xlink" x="0px" y="0px"
	 viewBox="0 0 960 560" enable-background="new 0 0 960 560" xml:space="preserve">
<path fill="none" stroke="#60F2A2" stroke-width="45" stroke-miterlimit="10" d="M444.6,433.2V245.4c0-25.5-30.2-39-49.2-22l-1.1,1
	c-21.9,19.6-8,55.9,21.4,55.9h174.9"/>
<path fill="none" stroke="#60F2A2" stroke-width="45" stroke-miterlimit="10" d="M516.1,219.6v172.8c0,21.3,24.1,33.6,41.3,21.2
	l1.2-0.9c25.3-18.2,14.5-58-18.4-58H377"/>
<path fill="none" stroke="#60F6C9" stroke-width="7" stroke-miterlimit="10" d="M501,379c0,54.6,49.3,56.5,65.8,40l1.2-0.9
	c25.3-18.2,24.7-73.8-28.7-73.8H378"/>
<path fill="none" stroke="#60F6C9" stroke-width="7" stroke-miterlimit="10" d="M500.6,302.5V331"/>
<path fill="none" stroke="#60F6C9" stroke-width="7" stroke-miterlimit="10" d="M500.6,220v37"/>
<path fill="none" stroke="#60F6C9" stroke-width="7" stroke-miterlimit="10" d="M458.5,334v-85c0-53.4-55.7-54-73.8-28.7l-0.9,1.2
	c-16.4,16.4-14.6,66.8,40,66.8"/>
<path fill="none" stroke="#60F6C9" stroke-width="7" stroke-miterlimit="10" d="M458.5,433.2v-55.7"/>
<path fill="none" stroke="#60F6C9" stroke-width="7" stroke-miterlimit="10" d="M590.5,288.5H467.7"/>
</svg>
